<?xml version="1.0" encoding="utf-8"?>
<!-- Generator: Adobe Illustrator 24.0.2, SVG Export Plug-In . SVG Version: 6.00 Build 0)  -->
<svg version="1.1" id="Layer_1" xmlns="http://www.w3.org/2000/svg" xmlns:xlink="http://www.w3.org/1999/xlink" x="0px" y="0px"
	 viewBox="0 0 174.7 174.7" style="enable-background:new 0 0 174.7 174.7;" xml:space="preserve">
<style type="text/css">
	.st0{fill:#A8AAAD;}
	.st1{fill:#F2718B;}
	.st2{opacity:0.3;fill:#FFFFFF;enable-background:new    ;}
	.st3{opacity:5.000000e-02;fill:#231F20;enable-background:new    ;}
</style>
<g>
	<g>
		<path class="st0" d="M122.3,167.1c-49.8-51.7-46.3-95.4-46.3-95.8l1,0.1c0,0.4-3.5,43.6,46,95L122.3,167.1z"/>
	</g>
	<g>
		<polygon class="st1" points="78.3,72.4 75.8,72.4 72.9,79.8 81,79.8 		"/>
		<g>
			<path class="st1" d="M103.5,36.8c0,18-11.9,38.6-26.5,38.6S50.5,54.8,50.5,36.8S62.4,8.7,77,8.7S103.5,18.8,103.5,36.8z"/>
			<path class="st2" d="M66,26.7c-3.8,5.2-5.7,10.1-8.3,8.4c-3.8-2.4-3.4-9,0.4-14.2s9.8-7.4,13.6-4.8C74.3,17.9,69.9,21.5,66,26.7z
				"/>
			<path class="st3" d="M95.7,15.9c-2.3,12.7-11,46.7-37.7,46.4C62.7,70,69.5,75.4,77,75.4c14.6,0,26.5-20.6,26.5-38.6
				C103.5,27.8,100.5,20.7,95.7,15.9z"/>
		</g>
	</g>
</g>
</svg>
