<?xml version="1.0" encoding="utf-8"?>
<!-- Generator: Adobe Illustrator 24.0.2, SVG Export Plug-In . SVG Version: 6.00 Build 0)  -->
<svg version="1.1" id="Layer_1" xmlns="http://www.w3.org/2000/svg" xmlns:xlink="http://www.w3.org/1999/xlink" x="0px" y="0px"
	 viewBox="0 0 174.7 174.7" style="enable-background:new 0 0 174.7 174.7;" xml:space="preserve">
<style type="text/css">
	.st0{fill:#A8AAAD;}
	.st1{fill:#2BACE2;}
	.st2{opacity:0.3;fill:#FFFFFF;enable-background:new    ;}
	.st3{opacity:5.000000e-02;fill:#231F20;enable-background:new    ;}
</style>
<g>
	<g>
		<path class="st0" d="M52.8,170.8l-0.7-0.7C93.7,131.4,95.2,65,95.2,64.3h1C96.2,65,94.7,131.9,52.8,170.8z"/>
	</g>
	<g>
		<polygon class="st1" points="96.2,68.7 93.7,68.7 90.9,76.1 99,76.1 		"/>
		<g>
			<path class="st1" d="M121.4,33.1c0,18-11.9,38.6-26.5,38.6S68.4,51.1,68.4,33.1S80.3,5,94.9,5S121.4,15.1,121.4,33.1z"/>
			<path class="st2" d="M84,23c-3.8,5.2-5.7,10.1-8.3,8.4c-3.8-2.4-3.4-9,0.4-14.2c3.8-5.2,9.8-7.4,13.6-4.8
				C92.2,14.1,87.8,17.8,84,23z"/>
			<path class="st3" d="M113.6,12.2c-2.3,12.7-11.1,46.6-37.7,46.3c4.8,7.7,11.6,13.1,19.1,13.1c14.6,0,26.5-20.6,26.5-38.6
				C121.4,24,118.4,17,113.6,12.2z"/>
		</g>
	</g>
</g>
</svg>
