<?xml version="1.0" encoding="utf-8"?>
<!-- Generator: Adobe Illustrator 24.0.2, SVG Export Plug-In . SVG Version: 6.00 Build 0)  -->
<svg version="1.1" id="Layer_1" xmlns="http://www.w3.org/2000/svg" xmlns:xlink="http://www.w3.org/1999/xlink" x="0px" y="0px"
	 viewBox="0 0 174.7 174.7" style="enable-background:new 0 0 174.7 174.7;" xml:space="preserve">
<style type="text/css">
	.st0{fill:#A8AAAD;}
	.st1{fill:#FBB042;}
	.st2{opacity:0.3;fill:#FFFFFF;enable-background:new    ;}
	.st3{opacity:5.000000e-02;fill:#231F20;enable-background:new    ;}
</style>
<g>
	<g>
		<path class="st0" d="M97.8,163.4C85.1,131.9,86,71.3,86,70.6h1c0,0.6-0.8,61.1,11.7,92.4L97.8,163.4z"/>
	</g>
	<g>
		<polygon class="st1" points="88.2,76.2 85.5,76.2 82.8,83.6 90.8,83.6 		"/>
		<g>
			<path class="st1" d="M113.2,40.6c0,18-11.9,38.6-26.5,38.6S60.2,58.6,60.2,40.6s11.9-28.1,26.5-28.1
				C101.4,12.5,113.2,22.6,113.2,40.6z"/>
			<path class="st2" d="M75.8,30.4c-3.8,5.2-5.7,10.1-8.3,8.4c-3.8-2.4-3.4-9,0.4-14.2c3.8-5.2,9.8-7.4,13.6-4.8
				C84,21.6,79.8,25.2,75.8,30.4z"/>
			<path class="st3" d="M105.4,19.7C103.2,32.3,94.3,66.3,67.8,66c4.8,7.7,11.6,13.1,19.1,13.1c14.6,0,26.5-20.6,26.5-38.6
				C113.2,31.5,110.2,24.5,105.4,19.7z"/>
		</g>
	</g>
</g>
</svg>
